<?xml version="1.0" encoding="utf-8" standalone="no"?>
<!DOCTYPE svg PUBLIC "-//W3C//DTD SVG 1.1//EN"
  "http://www.w3.org/Graphics/SVG/1.1/DTD/svg11.dtd">
<svg xmlns:xlink="http://www.w3.org/1999/xlink" width="201.6pt" height="252.672pt" viewBox="0 0 201.6 252.672" xmlns="http://www.w3.org/2000/svg" version="1.1">
 <metadata>
  <rdf:RDF xmlns:dc="http://purl.org/dc/elements/1.1/" xmlns:cc="http://creativecommons.org/ns#" xmlns:rdf="http://www.w3.org/1999/02/22-rdf-syntax-ns#">
   <cc:Work>
    <dc:type rdf:resource="http://purl.org/dc/dcmitype/StillImage"/>
    <dc:date>2026-10-08T22:47:10.783562</dc:date>
    <dc:format>image/svg+xml</dc:format>
    <dc:creator>
     <cc:Agent>
      <dc:title>Matplotlib v3.11.2, https://matplotlib.org/</dc:title>
     </cc:Agent>
    </dc:creator>
   </cc:Work>
  </rdf:RDF>
 </metadata>
 <defs>
  <style type="text/css">*{stroke-linejoin: round; stroke-linecap: butt}</style>
 </defs>
 <g id="figure_1">
  <g id="patch_1">
   <path d="M 0 252.672 
L 201.6 252.672 
L 201.6 0 
L 0 0 
z
" style="fill: #ffffff"/>
  </g>
  <g id="axes_1">
   <g id="line2d_1">
    <path d="M 96.768 96.768 
L 96.768 18.816 
" clip-path="url(#pe4f42816e2)" style="fill: none; stroke-dasharray: 14,2.5,2,2.5; stroke-dashoffset: 0; stroke: #000000; stroke-width: 0.6"/>
   </g>
   <g id="line2d_2">
    <path d="M 137.088 96.768 
L 137.088 65.856 
" clip-path="url(#pe4f42816e2)" style="fill: none; stroke-dasharray: 14,2.5,2,2.5; stroke-dashoffset: 0; stroke: #000000; stroke-width: 0.6"/>
   </g>
   <g id="line2d_3">
    <path d="M 96.768 96.768 
L 96.768 65.856 
" clip-path="url(#pe4f42816e2)" style="fill: none; stroke-dasharray: 14,2.5,2,2.5; stroke-dashoffset: 0; stroke: #000000; stroke-width: 0.6"/>
   </g>
   <g id="line2d_4">
    <path d="M 56.448 96.768 
L 56.448 65.856 
" clip-path="url(#pe4f42816e2)" style="fill: none; stroke-dasharray: 14,2.5,2,2.5; stroke-dashoffset: 0; stroke: #000000; stroke-width: 0.6"/>
   </g>
   <g id="line2d_5">
    <path d="M 96.768 96.768 
L 96.768 65.856 
" clip-path="url(#pe4f42816e2)" style="fill: none; stroke-dasharray: 14,2.5,2,2.5; stroke-dashoffset: 0; stroke: #000000; stroke-width: 0.6"/>
   </g>
   <g id="line2d_6">
    <path d="M 64.512 174.72 
L 129.024 174.72 
" clip-path="url(#pe4f42816e2)" style="fill: none; stroke-dasharray: 14,2.5,2,2.5; stroke-dashoffset: 0; stroke: #000000; stroke-width: 0.6"/>
   </g>
   <g id="line2d_7">
    <path d="M 96.768 206.976 
L 96.768 142.464 
" clip-path="url(#pe4f42816e2)" style="fill: none; stroke-dasharray: 14,2.5,2,2.5; stroke-dashoffset: 0; stroke: #000000; stroke-width: 0.6"/>
   </g>
   <g id="line2d_8">
    <path d="M 124.992 174.72 
L 149.184 174.72 
" clip-path="url(#pe4f42816e2)" style="fill: none; stroke-dasharray: 14,2.5,2,2.5; stroke-dashoffset: 0; stroke: #000000; stroke-width: 0.6"/>
   </g>
   <g id="line2d_9">
    <path d="M 137.088 186.816 
L 137.088 162.624 
" clip-path="url(#pe4f42816e2)" style="fill: none; stroke-dasharray: 14,2.5,2,2.5; stroke-dashoffset: 0; stroke: #000000; stroke-width: 0.6"/>
   </g>
   <g id="line2d_10">
    <path d="M 84.672 134.4 
L 108.864 134.4 
" clip-path="url(#pe4f42816e2)" style="fill: none; stroke-dasharray: 14,2.5,2,2.5; stroke-dashoffset: 0; stroke: #000000; stroke-width: 0.6"/>
   </g>
   <g id="line2d_11">
    <path d="M 96.768 146.496 
L 96.768 122.304 
" clip-path="url(#pe4f42816e2)" style="fill: none; stroke-dasharray: 14,2.5,2,2.5; stroke-dashoffset: 0; stroke: #000000; stroke-width: 0.6"/>
   </g>
   <g id="line2d_12">
    <path d="M 44.352 174.72 
L 68.544 174.72 
" clip-path="url(#pe4f42816e2)" style="fill: none; stroke-dasharray: 14,2.5,2,2.5; stroke-dashoffset: 0; stroke: #000000; stroke-width: 0.6"/>
   </g>
   <g id="line2d_13">
    <path d="M 56.448 186.816 
L 56.448 162.624 
" clip-path="url(#pe4f42816e2)" style="fill: none; stroke-dasharray: 14,2.5,2,2.5; stroke-dashoffset: 0; stroke: #000000; stroke-width: 0.6"/>
   </g>
   <g id="line2d_14">
    <path d="M 84.672 215.04 
L 108.864 215.04 
" clip-path="url(#pe4f42816e2)" style="fill: none; stroke-dasharray: 14,2.5,2,2.5; stroke-dashoffset: 0; stroke: #000000; stroke-width: 0.6"/>
   </g>
   <g id="line2d_15">
    <path d="M 96.768 227.136 
L 96.768 202.944 
" clip-path="url(#pe4f42816e2)" style="fill: none; stroke-dasharray: 14,2.5,2,2.5; stroke-dashoffset: 0; stroke: #000000; stroke-width: 0.6"/>
   </g>
   <g id="line2d_16">
    <path d="M 137.088 174.72 
L 136.962665 171.54332 
L 136.58744 168.38639 
L 135.964657 165.268836 
L 135.098188 162.21004 
L 133.99342 159.229018 
L 132.657221 156.344304 
L 131.097899 153.573832 
L 129.325148 150.934825 
L 127.349988 148.443692 
L 125.184701 146.115918 
L 122.842746 143.965976 
L 120.338685 142.007232 
L 117.688084 140.251863 
L 114.907423 138.710783 
L 112.01399 137.393572 
L 109.025772 136.308421 
L 105.961347 135.462074 
L 102.839767 134.859794 
L 99.680439 134.505325 
L 96.503004 134.400871 
L 93.327217 134.547081 
L 90.172821 134.943047 
L 87.059427 135.586306 
L 84.006392 136.47286 
L 81.032695 137.597196 
L 78.156826 138.952325 
L 75.396661 140.529822 
L 72.769363 142.319879 
L 70.291264 144.311368 
L 67.977772 146.491908 
L 65.843268 148.847942 
L 63.901024 151.364823 
L 62.163114 154.026903 
L 60.640342 156.817633 
L 59.342177 159.719661 
L 58.276688 162.714947 
L 57.4505 165.784868 
L 56.868749 168.910338 
L 56.535052 172.071928 
L 56.451483 175.249981 
L 56.618563 178.424738 
L 57.035251 181.576464 
L 57.698959 184.685562 
L 58.605559 187.732705 
L 59.749415 190.698948 
L 61.123416 193.565849 
L 62.71902 196.315586 
L 64.526306 198.931063 
L 66.534039 201.396019 
L 68.729737 203.69513 
L 71.099748 205.814103 
L 73.62934 207.739764 
L 76.302785 209.460141 
L 79.103462 210.964537 
L 82.013959 212.243602 
L 85.016183 213.289382 
L 88.091468 214.095375 
L 91.220695 214.656572 
L 94.384409 214.969483 
L 97.562942 215.032163 
L 100.736533 214.844221 
L 103.885452 214.406827 
L 106.990121 213.7227 
L 110.03124 212.796093 
L 112.989901 211.632767 
L 115.84771 210.239953 
L 118.5869 208.626312 
L 121.190442 206.801875 
L 123.64215 204.777985 
L 125.926781 202.567224 
L 128.030132 200.183337 
L 129.939126 197.641144 
L 131.641894 194.95645 
L 133.127852 192.145946 
L 134.38776 189.227105 
L 135.413785 186.218073 
L 136.19955 183.137557 
L 136.740168 180.00471 
L 137.03228 176.839007 
L 137.088 174.72 
L 137.088 174.72 
" clip-path="url(#pe4f42816e2)" style="fill: none; stroke-dasharray: 14,2.5,2,2.5; stroke-dashoffset: 0; stroke: #000000; stroke-width: 0.6"/>
   </g>
   <g id="line2d_17">
    <path d="M 83.328 91.1232 
L 83.328 71.47392 
" clip-path="url(#pe4f42816e2)" style="fill: none; stroke-dasharray: 5,2.5; stroke-dashoffset: 0; stroke: #000000; stroke-width: 0.8"/>
   </g>
   <g id="line2d_18">
    <path d="M 83.328 70.99008 
L 83.328 24.4608 
" clip-path="url(#pe4f42816e2)" style="fill: none; stroke-dasharray: 5,2.5; stroke-dashoffset: 0; stroke: #000000; stroke-width: 0.8"/>
   </g>
   <g id="line2d_19">
    <path d="M 110.208 91.1232 
L 110.208 71.47392 
" clip-path="url(#pe4f42816e2)" style="fill: none; stroke-dasharray: 5,2.5; stroke-dashoffset: 0; stroke: #000000; stroke-width: 0.8"/>
   </g>
   <g id="line2d_20">
    <path d="M 110.208 70.99008 
L 110.208 24.4608 
" clip-path="url(#pe4f42816e2)" style="fill: none; stroke-dasharray: 5,2.5; stroke-dashoffset: 0; stroke: #000000; stroke-width: 0.8"/>
   </g>
   <g id="line2d_21">
    <path d="M 130.368 91.1232 
L 130.368 71.5008 
" clip-path="url(#pe4f42816e2)" style="fill: none; stroke-dasharray: 5,2.5; stroke-dashoffset: 0; stroke: #000000; stroke-width: 0.8"/>
   </g>
   <g id="line2d_22">
    <path d="M 143.808 91.1232 
L 143.808 71.5008 
" clip-path="url(#pe4f42816e2)" style="fill: none; stroke-dasharray: 5,2.5; stroke-dashoffset: 0; stroke: #000000; stroke-width: 0.8"/>
   </g>
   <g id="line2d_23">
    <path d="M 90.048 91.1232 
L 90.048 71.47392 
" clip-path="url(#pe4f42816e2)" style="fill: none; stroke-dasharray: 5,2.5; stroke-dashoffset: 0; stroke: #000000; stroke-width: 0.8"/>
   </g>
   <g id="line2d_24">
    <path d="M 103.488 91.1232 
L 103.488 71.47392 
" clip-path="url(#pe4f42816e2)" style="fill: none; stroke-dasharray: 5,2.5; stroke-dashoffset: 0; stroke: #000000; stroke-width: 0.8"/>
   </g>
   <g id="line2d_25">
    <path d="M 49.728 91.1232 
L 49.728 71.5008 
" clip-path="url(#pe4f42816e2)" style="fill: none; stroke-dasharray: 5,2.5; stroke-dashoffset: 0; stroke: #000000; stroke-width: 0.8"/>
   </g>
   <g id="line2d_26">
    <path d="M 63.168 91.1232 
L 63.168 71.5008 
" clip-path="url(#pe4f42816e2)" style="fill: none; stroke-dasharray: 5,2.5; stroke-dashoffset: 0; stroke: #000000; stroke-width: 0.8"/>
   </g>
   <g id="line2d_27">
    <path d="M 150.528 91.392 
L 43.008 91.392 
L 43.008 91.392 
" clip-path="url(#pe4f42816e2)" style="fill: none; stroke: #000000; stroke-width: 1.4; stroke-linecap: round"/>
   </g>
   <g id="line2d_28">
    <path d="M 150.528 71.232 
L 123.725598 71.232 
" clip-path="url(#pe4f42816e2)" style="fill: none; stroke: #000000; stroke-width: 1.4; stroke-linecap: round"/>
   </g>
   <g id="line2d_29">
    <path d="M 150.528 71.232 
L 43.008 71.232 
L 43.008 71.232 
" clip-path="url(#pe4f42816e2)" style="fill: none; stroke: #000000; stroke-width: 1.4; stroke-linecap: round"/>
   </g>
   <g id="line2d_30">
    <path d="M 43.008 91.392 
L 43.008 71.232 
" clip-path="url(#pe4f42816e2)" style="fill: none; stroke: #000000; stroke-width: 1.4; stroke-linecap: round"/>
   </g>
   <g id="line2d_31">
    <path d="M 150.528 91.392 
L 150.528 71.232 
" clip-path="url(#pe4f42816e2)" style="fill: none; stroke: #000000; stroke-width: 1.4; stroke-linecap: round"/>
   </g>
   <g id="line2d_32">
    <path d="M 69.888 71.232 
L 123.648 71.232 
" clip-path="url(#pe4f42816e2)" style="fill: none; stroke: #000000; stroke-width: 1.4; stroke-linecap: round"/>
   </g>
   <g id="line2d_33">
    <path d="M 123.648 24.192 
L 69.888 24.192 
L 69.888 24.192 
" clip-path="url(#pe4f42816e2)" style="fill: none; stroke: #000000; stroke-width: 1.4; stroke-linecap: round"/>
   </g>
   <g id="line2d_34">
    <path d="M 69.888 70.9632 
L 69.888 24.192 
" clip-path="url(#pe4f42816e2)" style="fill: none; stroke: #000000; stroke-width: 1.4; stroke-linecap: round"/>
   </g>
   <g id="line2d_35">
    <path d="M 123.648 70.9632 
L 123.648 24.192 
" clip-path="url(#pe4f42816e2)" style="fill: none; stroke: #000000; stroke-width: 1.4; stroke-linecap: round"/>
   </g>
   <g id="line2d_36">
    <path d="M 110.208 91.392 
L 83.328 91.392 
L 83.328 91.392 
" clip-path="url(#pe4f42816e2)" style="fill: none; stroke: #000000; stroke-width: 1.4; stroke-linecap: round"/>
   </g>
   <g id="line2d_37">
    <path d="M 110.208 24.192 
L 83.328 24.192 
L 83.328 24.192 
" clip-path="url(#pe4f42816e2)" style="fill: none; stroke: #000000; stroke-width: 1.4; stroke-linecap: round"/>
   </g>
   <g id="line2d_38">
    <path d="M 143.808 91.392 
L 143.802619 91.392 
L 143.786486 91.392 
L 143.759625 91.392 
L 143.72208 91.392 
L 143.673912 91.392 
L 143.615197 91.392 
L 143.546029 91.392 
L 143.466519 91.392 
L 143.376794 91.392 
L 143.276999 91.392 
L 143.167292 91.392 
L 143.04785 91.392 
L 142.918864 91.392 
L 142.918864 91.392 
L 142.78054 91.392 
L 142.6331 91.392 
L 142.6331 91.392 
L 142.47678 91.392 
L 142.311831 91.392 
L 142.138516 91.392 
L 141.957113 91.392 
L 141.767913 91.392 
L 141.571218 91.392 
L 141.367343 91.392 
L 141.367343 91.392 
L 141.156616 91.392 
L 141.156616 91.392 
L 140.939373 91.392 
L 140.939373 91.392 
L 140.715963 91.392 
L 140.486743 91.392 
L 140.25208 91.392 
L 140.012349 91.392 
L 139.767936 91.392 
L 139.519231 91.392 
L 139.519231 91.392 
L 139.266633 91.392 
L 139.010546 91.392 
L 138.75138 91.392 
L 138.489551 91.392 
L 138.489551 91.392 
L 138.225476 91.392 
L 137.959581 91.392 
L 137.692289 91.392 
L 137.692289 91.392 
L 137.42403 91.392 
L 137.155233 91.392 
L 136.886328 91.392 
L 136.617746 91.392 
L 136.617746 91.392 
L 136.349917 91.392 
L 136.349917 91.392 
L 136.08327 91.392 
L 135.818232 91.392 
L 135.555228 91.392 
L 135.294678 91.392 
L 135.294678 91.392 
L 135.037 91.392 
L 134.782606 91.392 
L 134.531904 91.392 
L 134.285296 91.392 
L 134.043176 91.392 
L 134.043176 91.392 
L 133.805932 91.392 
L 133.573944 91.392 
L 133.573944 91.392 
L 133.347583 91.392 
L 133.127212 91.392 
L 132.913184 91.392 
L 132.705842 91.392 
L 132.505517 91.392 
L 132.312531 91.392 
L 132.127192 91.392 
L 131.949798 91.392 
L 131.949798 91.392 
L 131.780632 91.392 
L 131.619965 91.392 
L 131.468055 91.392 
L 131.325144 91.392 
L 131.191462 91.392 
L 131.067223 91.392 
L 130.952626 91.392 
L 130.847854 91.392 
L 130.753075 91.392 
L 130.668441 91.392 
L 130.594087 91.392 
L 130.530133 91.392 
L 130.47668 91.392 
L 130.433815 91.392 
L 130.401606 91.392 
L 130.380105 91.392 
L 130.369345 91.392 
" clip-path="url(#pe4f42816e2)" style="fill: none; stroke: #000000; stroke-width: 1.4; stroke-linecap: round"/>
   </g>
   <g id="line2d_39">
    <path d="M 143.808 71.232 
L 143.802619 71.232 
L 143.786486 71.232 
L 143.759625 71.232 
L 143.72208 71.232 
L 143.673912 71.232 
L 143.615197 71.232 
L 143.546029 71.232 
L 143.466519 71.232 
L 143.376794 71.232 
L 143.276999 71.232 
L 143.167292 71.232 
L 143.04785 71.232 
L 142.918864 71.232 
L 142.918864 71.232 
L 142.78054 71.232 
L 142.6331 71.232 
L 142.6331 71.232 
L 142.47678 71.232 
L 142.311831 71.232 
L 142.138516 71.232 
L 141.957113 71.232 
L 141.767913 71.232 
L 141.571218 71.232 
L 141.367343 71.232 
L 141.367343 71.232 
L 141.156616 71.232 
L 141.156616 71.232 
L 140.939373 71.232 
L 140.939373 71.232 
L 140.715963 71.232 
L 140.486743 71.232 
L 140.25208 71.232 
L 140.012349 71.232 
L 139.767936 71.232 
L 139.519231 71.232 
L 139.519231 71.232 
L 139.266633 71.232 
L 139.010546 71.232 
L 138.75138 71.232 
L 138.489551 71.232 
L 138.489551 71.232 
L 138.225476 71.232 
L 137.959581 71.232 
L 137.692289 71.232 
L 137.692289 71.232 
L 137.42403 71.232 
L 137.155233 71.232 
L 136.886328 71.232 
L 136.617746 71.232 
L 136.617746 71.232 
L 136.349917 71.232 
L 136.349917 71.232 
L 136.08327 71.232 
L 135.818232 71.232 
L 135.555228 71.232 
L 135.294678 71.232 
L 135.294678 71.232 
L 135.037 71.232 
L 134.782606 71.232 
L 134.531904 71.232 
L 134.285296 71.232 
L 134.043176 71.232 
L 134.043176 71.232 
L 133.805932 71.232 
L 133.573944 71.232 
L 133.573944 71.232 
L 133.347583 71.232 
L 133.127212 71.232 
L 132.913184 71.232 
L 132.705842 71.232 
L 132.505517 71.232 
L 132.312531 71.232 
L 132.127192 71.232 
L 131.949798 71.232 
L 131.949798 71.232 
L 131.780632 71.232 
L 131.619965 71.232 
L 131.468055 71.232 
L 131.325144 71.232 
L 131.191462 71.232 
L 131.067223 71.232 
L 130.952626 71.232 
L 130.847854 71.232 
L 130.753075 71.232 
L 130.668441 71.232 
L 130.594087 71.232 
L 130.530133 71.232 
L 130.47668 71.232 
L 130.433815 71.232 
L 130.401606 71.232 
L 130.380105 71.232 
L 130.369345 71.232 
" clip-path="url(#pe4f42816e2)" style="fill: none; stroke: #000000; stroke-width: 1.4; stroke-linecap: round"/>
   </g>
   <g id="line2d_40">
    <path d="M 103.488 91.392 
L 90.049345 91.392 
L 90.049345 91.392 
" clip-path="url(#pe4f42816e2)" style="fill: none; stroke: #000000; stroke-width: 1.4; stroke-linecap: round"/>
   </g>
   <g id="line2d_41">
    <path d="M 63.168 91.392 
L 63.162619 91.392 
L 63.146486 91.392 
L 63.119625 91.392 
L 63.08208 91.392 
L 63.033912 91.392 
L 62.975197 91.392 
L 62.906029 91.392 
L 62.826519 91.392 
L 62.736794 91.392 
L 62.636999 91.392 
L 62.527292 91.392 
L 62.40785 91.392 
L 62.278864 91.392 
L 62.14054 91.392 
L 61.9931 91.392 
L 61.83678 91.392 
L 61.671831 91.392 
L 61.671831 91.392 
L 61.498516 91.392 
L 61.317113 91.392 
L 61.317113 91.392 
L 61.127913 91.392 
L 60.931218 91.392 
L 60.727343 91.392 
L 60.516616 91.392 
L 60.299373 91.392 
L 60.075963 91.392 
L 59.846743 91.392 
L 59.846743 91.392 
L 59.61208 91.392 
L 59.372349 91.392 
L 59.127936 91.392 
L 58.879231 91.392 
L 58.879231 91.392 
L 58.626633 91.392 
L 58.370546 91.392 
L 58.11138 91.392 
L 57.849551 91.392 
L 57.849551 91.392 
L 57.585476 91.392 
L 57.319581 91.392 
L 57.052289 91.392 
L 57.052289 91.392 
L 56.78403 91.392 
L 56.515233 91.392 
L 56.246328 91.392 
L 55.977746 91.392 
L 55.977746 91.392 
L 55.709917 91.392 
L 55.709917 91.392 
L 55.44327 91.392 
L 55.178232 91.392 
L 54.915228 91.392 
L 54.654678 91.392 
L 54.654678 91.392 
L 54.397 91.392 
L 54.142606 91.392 
L 53.891904 91.392 
L 53.645296 91.392 
L 53.403176 91.392 
L 53.403176 91.392 
L 53.165932 91.392 
L 53.165932 91.392 
L 52.933944 91.392 
L 52.707583 91.392 
L 52.487212 91.392 
L 52.273184 91.392 
L 52.065842 91.392 
L 51.865517 91.392 
L 51.672531 91.392 
L 51.487192 91.392 
L 51.309798 91.392 
L 51.140632 91.392 
L 50.979965 91.392 
L 50.828055 91.392 
L 50.685144 91.392 
L 50.551462 91.392 
L 50.551462 91.392 
L 50.427223 91.392 
L 50.312626 91.392 
L 50.207854 91.392 
L 50.113075 91.392 
L 50.113075 91.392 
L 50.028441 91.392 
L 49.954087 91.392 
L 49.890133 91.392 
L 49.83668 91.392 
L 49.793815 91.392 
L 49.761606 91.392 
L 49.740105 91.392 
L 49.729345 91.392 
" clip-path="url(#pe4f42816e2)" style="fill: none; stroke: #000000; stroke-width: 1.4; stroke-linecap: round"/>
   </g>
   <g id="line2d_42">
    <path d="M 63.168 71.232 
L 63.162619 71.232 
L 63.146486 71.232 
L 63.119625 71.232 
L 63.08208 71.232 
L 63.033912 71.232 
L 62.975197 71.232 
L 62.906029 71.232 
L 62.826519 71.232 
L 62.736794 71.232 
L 62.636999 71.232 
L 62.527292 71.232 
L 62.40785 71.232 
L 62.278864 71.232 
L 62.14054 71.232 
L 61.9931 71.232 
L 61.83678 71.232 
L 61.671831 71.232 
L 61.671831 71.232 
L 61.498516 71.232 
L 61.317113 71.232 
L 61.317113 71.232 
L 61.127913 71.232 
L 60.931218 71.232 
L 60.727343 71.232 
L 60.516616 71.232 
L 60.299373 71.232 
L 60.075963 71.232 
L 59.846743 71.232 
L 59.846743 71.232 
L 59.61208 71.232 
L 59.372349 71.232 
L 59.127936 71.232 
L 58.879231 71.232 
L 58.879231 71.232 
L 58.626633 71.232 
L 58.370546 71.232 
L 58.11138 71.232 
L 57.849551 71.232 
L 57.849551 71.232 
L 57.585476 71.232 
L 57.319581 71.232 
L 57.052289 71.232 
L 57.052289 71.232 
L 56.78403 71.232 
L 56.515233 71.232 
L 56.246328 71.232 
L 55.977746 71.232 
L 55.977746 71.232 
L 55.709917 71.232 
L 55.709917 71.232 
L 55.44327 71.232 
L 55.178232 71.232 
L 54.915228 71.232 
L 54.654678 71.232 
L 54.654678 71.232 
L 54.397 71.232 
L 54.142606 71.232 
L 53.891904 71.232 
L 53.645296 71.232 
L 53.403176 71.232 
L 53.403176 71.232 
L 53.165932 71.232 
L 53.165932 71.232 
L 52.933944 71.232 
L 52.707583 71.232 
L 52.487212 71.232 
L 52.273184 71.232 
L 52.065842 71.232 
L 51.865517 71.232 
L 51.672531 71.232 
L 51.487192 71.232 
L 51.309798 71.232 
L 51.140632 71.232 
L 50.979965 71.232 
L 50.828055 71.232 
L 50.685144 71.232 
L 50.551462 71.232 
L 50.551462 71.232 
L 50.427223 71.232 
L 50.312626 71.232 
L 50.207854 71.232 
L 50.113075 71.232 
L 50.113075 71.232 
L 50.028441 71.232 
L 49.954087 71.232 
L 49.890133 71.232 
L 49.83668 71.232 
L 49.793815 71.232 
L 49.761606 71.232 
L 49.740105 71.232 
L 49.729345 71.232 
" clip-path="url(#pe4f42816e2)" style="fill: none; stroke: #000000; stroke-width: 1.4; stroke-linecap: round"/>
   </g>
   <g id="line2d_43">
    <path d="M 103.488 91.392 
L 90.049345 91.392 
L 90.049345 91.392 
" clip-path="url(#pe4f42816e2)" style="fill: none; stroke: #000000; stroke-width: 1.4; stroke-linecap: round"/>
   </g>
   <g id="line2d_44">
    <path d="M 103.488 71.232 
L 90.049345 71.232 
L 90.049345 71.232 
" clip-path="url(#pe4f42816e2)" style="fill: none; stroke: #000000; stroke-width: 1.4; stroke-linecap: round"/>
   </g>
   <g id="line2d_45">
    <path d="M 150.528 174.72 
L 150.376718 170.68974 
L 149.923722 166.682162 
L 149.171562 162.719821 
L 148.203344 159.082129 
L 146.886269 155.270148 
L 145.402338 151.81064 
L 143.548019 148.229106 
L 141.430418 144.796665 
L 139.226946 141.744623 
L 136.635379 138.654369 
L 133.819435 135.767096 
L 131.002748 133.269793 
L 127.798986 130.819937 
L 124.420579 128.617153 
L 120.886542 126.67384 
L 117.465229 125.10385 
L 113.687381 123.691849 
L 110.075042 122.632955 
L 106.132752 121.781932 
L 102.137758 121.228848 
L 98.112541 120.976816 
L 94.079758 121.027254 
L 90.062104 121.379878 
L 86.082192 122.032705 
L 82.421423 122.909641 
L 78.577694 124.130966 
L 75.082154 125.52791 
L 71.455364 127.292075 
L 67.971035 129.323168 
L 64.864839 131.449619 
L 61.710737 133.963088 
L 58.753939 136.705939 
L 56.186972 139.459288 
L 53.657756 142.600777 
L 51.371168 145.923035 
L 49.467295 149.170422 
L 47.68501 152.788341 
L 46.178966 156.529694 
L 44.957641 160.373423 
L 44.080705 164.034192 
L 43.427878 168.014104 
L 43.075254 172.031758 
L 43.024816 176.064541 
L 43.276848 180.089758 
L 43.783747 183.819812 
L 44.615038 187.766309 
L 45.655848 191.3839 
L 47.048933 195.168765 
L 48.601788 198.597889 
L 50.527398 202.141603 
L 52.713253 205.530987 
L 55.147052 208.746964 
L 57.815096 211.771435 
L 60.702369 214.587379 
L 63.792623 217.178946 
L 67.068463 219.531551 
L 70.511455 221.631954 
L 73.85864 223.354338 
L 77.569109 224.93494 
L 81.387631 226.232929 
L 85.030121 227.182937 
L 88.996175 227.915266 
L 93.005968 228.348208 
L 96.768 228.48 
L 100.79826 228.328718 
L 104.805838 227.875722 
L 108.768179 227.123562 
L 112.405871 226.155344 
L 116.217852 224.838269 
L 119.920368 223.239125 
L 123.49258 221.366912 
L 126.691335 219.382418 
L 129.955366 217.013455 
L 133.032617 214.406461 
L 135.535066 211.965834 
L 138.218207 208.954748 
L 140.668063 205.750986 
L 142.870847 202.372579 
L 144.81416 198.838542 
L 146.38415 195.417229 
L 147.796151 191.639381 
L 148.920962 187.766309 
L 149.706068 184.084752 
L 150.259152 180.089758 
L 150.511184 176.064541 
L 150.528 174.72 
L 150.528 174.72 
" clip-path="url(#pe4f42816e2)" style="fill: none; stroke: #000000; stroke-width: 1.4; stroke-linecap: round"/>
   </g>
   <g id="line2d_46">
    <path d="M 150.528 174.72 
L 150.376718 170.68974 
L 149.923722 166.682162 
L 149.171562 162.719821 
L 148.203344 159.082129 
L 146.886269 155.270148 
L 145.402338 151.81064 
L 143.548019 148.229106 
L 141.430418 144.796665 
L 139.226946 141.744623 
L 136.635379 138.654369 
L 133.819435 135.767096 
L 131.002748 133.269793 
L 127.798986 130.819937 
L 124.420579 128.617153 
L 120.886542 126.67384 
L 117.465229 125.10385 
L 113.687381 123.691849 
L 110.075042 122.632955 
L 106.132752 121.781932 
L 102.137758 121.228848 
L 98.112541 120.976816 
L 94.079758 121.027254 
L 90.062104 121.379878 
L 86.082192 122.032705 
L 82.421423 122.909641 
L 78.577694 124.130966 
L 75.082154 125.52791 
L 71.455364 127.292075 
L 67.971035 129.323168 
L 64.864839 131.449619 
L 61.710737 133.963088 
L 58.753939 136.705939 
L 56.186972 139.459288 
L 53.657756 142.600777 
L 51.371168 145.923035 
L 49.467295 149.170422 
L 47.68501 152.788341 
L 46.178966 156.529694 
L 44.957641 160.373423 
L 44.080705 164.034192 
L 43.427878 168.014104 
L 43.075254 172.031758 
L 43.024816 176.064541 
L 43.276848 180.089758 
L 43.783747 183.819812 
L 44.615038 187.766309 
L 45.655848 191.3839 
L 47.048933 195.168765 
L 48.601788 198.597889 
L 50.527398 202.141603 
L 52.713253 205.530987 
L 55.147052 208.746964 
L 57.815096 211.771435 
L 60.702369 214.587379 
L 63.792623 217.178946 
L 67.068463 219.531551 
L 70.511455 221.631954 
L 73.85864 223.354338 
L 77.569109 224.93494 
L 81.387631 226.232929 
L 85.030121 227.182937 
L 88.996175 227.915266 
L 93.005968 228.348208 
L 96.768 228.48 
L 100.79826 228.328718 
L 104.805838 227.875722 
L 108.768179 227.123562 
L 112.405871 226.155344 
L 116.217852 224.838269 
L 119.920368 223.239125 
L 123.49258 221.366912 
L 126.691335 219.382418 
L 129.955366 217.013455 
L 133.032617 214.406461 
L 135.535066 211.965834 
L 138.218207 208.954748 
L 140.668063 205.750986 
L 142.870847 202.372579 
L 144.81416 198.838542 
L 146.38415 195.417229 
L 147.796151 191.639381 
L 148.920962 187.766309 
L 149.706068 184.084752 
L 150.259152 180.089758 
L 150.511184 176.064541 
L 150.528 174.72 
L 150.528 174.72 
" clip-path="url(#pe4f42816e2)" style="fill: none; stroke: #000000; stroke-width: 1.4; stroke-linecap: round"/>
   </g>
   <g id="line2d_47">
    <path d="M 123.648 174.72 
L 123.513576 172.035121 
L 123.111648 169.377096 
L 122.524464 167.029816 
L 121.627533 164.495618 
L 120.481962 162.063682 
L 119.099209 159.758332 
L 117.493103 157.602626 
L 115.679709 155.618125 
L 113.677164 153.824676 
L 111.505497 152.240219 
L 109.186429 150.880599 
L 106.992382 149.860467 
L 104.458184 148.963536 
L 101.847071 148.324216 
L 99.452879 147.974424 
L 96.768 147.84 
L 94.083121 147.974424 
L 91.425096 148.376352 
L 88.820509 149.041764 
L 86.295412 149.964005 
L 84.111682 151.006038 
L 81.806332 152.388791 
L 79.650626 153.994897 
L 77.666125 155.808291 
L 75.872676 157.810836 
L 74.436791 159.758332 
L 73.054038 162.063682 
L 71.908467 164.495618 
L 71.011536 167.029816 
L 70.424352 169.377096 
L 70.022424 172.035121 
L 69.888 174.72 
L 70.022424 177.404879 
L 70.424352 180.062904 
L 71.011536 182.410184 
L 71.908467 184.944382 
L 73.054038 187.376318 
L 74.436791 189.681668 
L 76.042897 191.837374 
L 77.856291 193.821875 
L 79.650626 195.445103 
L 81.806332 197.051209 
L 84.111682 198.433962 
L 86.543618 199.579533 
L 89.077816 200.476464 
L 91.688929 201.115784 
L 94.350843 201.491099 
L 96.768 201.6 
L 99.185157 201.491099 
L 101.847071 201.115784 
L 104.458184 200.476464 
L 106.992382 199.579533 
L 109.424318 198.433962 
L 111.729668 197.051209 
L 113.885374 195.445103 
L 115.869875 193.631709 
L 117.493103 191.837374 
L 119.099209 189.681668 
L 120.481962 187.376318 
L 121.627533 184.944382 
L 122.524464 182.410184 
L 123.111648 180.062904 
L 123.513576 177.404879 
L 123.648 174.72 
L 123.648 174.72 
" clip-path="url(#pe4f42816e2)" style="fill: none; stroke: #000000; stroke-width: 1.4; stroke-linecap: round"/>
   </g>
   <g id="line2d_48">
    <path d="M 123.648 174.72 
L 123.513576 172.035121 
L 123.111648 169.377096 
L 122.524464 167.029816 
L 121.627533 164.495618 
L 120.481962 162.063682 
L 119.099209 159.758332 
L 117.493103 157.602626 
L 115.679709 155.618125 
L 113.677164 153.824676 
L 111.505497 152.240219 
L 109.186429 150.880599 
L 106.992382 149.860467 
L 104.458184 148.963536 
L 101.847071 148.324216 
L 99.452879 147.974424 
L 96.768 147.84 
L 94.083121 147.974424 
L 91.425096 148.376352 
L 88.820509 149.041764 
L 86.295412 149.964005 
L 84.111682 151.006038 
L 81.806332 152.388791 
L 79.650626 153.994897 
L 77.666125 155.808291 
L 75.872676 157.810836 
L 74.436791 159.758332 
L 73.054038 162.063682 
L 71.908467 164.495618 
L 71.011536 167.029816 
L 70.424352 169.377096 
L 70.022424 172.035121 
L 69.888 174.72 
L 70.022424 177.404879 
L 70.424352 180.062904 
L 71.011536 182.410184 
L 71.908467 184.944382 
L 73.054038 187.376318 
L 74.436791 189.681668 
L 76.042897 191.837374 
L 77.856291 193.821875 
L 79.650626 195.445103 
L 81.806332 197.051209 
L 84.111682 198.433962 
L 86.543618 199.579533 
L 89.077816 200.476464 
L 91.688929 201.115784 
L 94.350843 201.491099 
L 96.768 201.6 
L 99.185157 201.491099 
L 101.847071 201.115784 
L 104.458184 200.476464 
L 106.992382 199.579533 
L 109.424318 198.433962 
L 111.729668 197.051209 
L 113.885374 195.445103 
L 115.869875 193.631709 
L 117.493103 191.837374 
L 119.099209 189.681668 
L 120.481962 187.376318 
L 121.627533 184.944382 
L 122.524464 182.410184 
L 123.111648 180.062904 
L 123.513576 177.404879 
L 123.648 174.72 
L 123.648 174.72 
" clip-path="url(#pe4f42816e2)" style="fill: none; stroke: #000000; stroke-width: 1.4; stroke-linecap: round"/>
   </g>
   <g id="line2d_49">
    <path d="M 110.208 174.72 
L 110.197239 174.182271 
L 110.140788 173.377561 
L 110.036161 172.577687 
L 109.939824 172.048548 
L 109.684057 171.003946 
L 109.525038 170.490155 
L 109.248292 169.732423 
L 109.038748 169.237085 
L 108.6877 168.510786 
L 108.293712 167.806855 
L 108.007891 167.351251 
L 107.70407 166.907448 
L 107.215662 166.265418 
L 106.869032 165.854181 
L 106.318938 165.264145 
L 105.734436 164.708175 
L 105.326687 164.357448 
L 104.470747 163.706313 
L 104.023926 163.406948 
L 103.332136 162.992011 
L 102.616699 162.619326 
L 102.127873 162.395011 
L 101.378788 162.095649 
L 100.870001 161.921282 
L 100.09476 161.698239 
L 99.571101 161.575563 
L 98.77746 161.43107 
L 98.244166 161.361312 
L 97.708508 161.312948 
L 96.902466 161.280673 
L 96.364656 161.286054 
L 95.559421 161.33445 
L 95.024838 161.393523 
L 94.228465 161.522108 
L 93.44124 161.698239 
L 92.922908 161.841768 
L 92.157212 162.095649 
L 91.655809 162.290233 
L 91.162592 162.504723 
L 90.439841 162.863019 
L 89.970515 163.1257 
L 89.287166 163.554395 
L 88.630768 164.023316 
L 88.209313 164.357448 
L 87.801564 164.708175 
L 87.217062 165.264145 
L 86.666968 165.854181 
L 86.320338 166.265418 
L 85.83193 166.907448 
L 85.528109 167.351251 
L 85.106272 168.038855 
L 84.8483 168.510786 
L 84.609416 168.99266 
L 84.287708 169.732423 
L 84.09815 170.235748 
L 83.851943 171.003946 
L 83.596176 172.048548 
L 83.499839 172.577687 
L 83.395212 173.377561 
L 83.338761 174.182271 
L 83.328 174.72 
L 83.338761 175.257729 
L 83.395212 176.062439 
L 83.45963 176.596404 
L 83.596176 177.391452 
L 83.780174 178.176875 
L 83.928882 178.693745 
L 84.09815 179.204252 
L 84.390002 179.956294 
L 84.726447 180.689472 
L 84.974925 181.16647 
L 85.38292 181.862377 
L 85.677799 182.31217 
L 86.320338 183.174582 
L 86.666968 183.585819 
L 87.217062 184.175855 
L 87.801564 184.731825 
L 88.209313 185.082552 
L 89.065253 185.733687 
L 89.512074 186.033052 
L 90.203864 186.447989 
L 90.678352 186.701226 
L 91.408127 187.044989 
L 92.157212 187.344351 
L 92.665999 187.518718 
L 93.44124 187.741761 
L 93.964899 187.864437 
L 94.75854 188.00893 
L 95.291834 188.078688 
L 95.827492 188.127052 
L 96.633534 188.159327 
L 97.171344 188.153946 
L 97.976579 188.10555 
L 98.511162 188.046477 
L 99.307535 187.917892 
L 100.09476 187.741761 
L 100.613092 187.598232 
L 101.125266 187.43408 
L 101.880191 187.149767 
L 102.616699 186.820674 
L 103.096159 186.576981 
L 104.023926 186.033052 
L 104.470747 185.733687 
L 105.117631 185.251726 
L 105.734436 184.731825 
L 106.127825 184.365065 
L 106.689615 183.786154 
L 107.044404 183.381935 
L 107.382736 182.963844 
L 107.858201 182.31217 
L 108.15308 181.862377 
L 108.561075 181.16647 
L 108.809553 180.689472 
L 109.145998 179.956294 
L 109.43785 179.204252 
L 109.607118 178.693745 
L 109.755826 178.176875 
L 109.939824 177.391452 
L 110.036161 176.862313 
L 110.140788 176.062439 
L 110.197239 175.257729 
L 110.208 174.72 
" clip-path="url(#pe4f42816e2)" style="fill: none; stroke: #000000; stroke-width: 1.4; stroke-linecap: round"/>
   </g>
   <g id="line2d_50">
    <path d="M 110.208 174.72 
L 110.197239 174.182271 
L 110.140788 173.377561 
L 110.036161 172.577687 
L 109.939824 172.048548 
L 109.684057 171.003946 
L 109.525038 170.490155 
L 109.248292 169.732423 
L 109.038748 169.237085 
L 108.6877 168.510786 
L 108.293712 167.806855 
L 108.007891 167.351251 
L 107.70407 166.907448 
L 107.215662 166.265418 
L 106.869032 165.854181 
L 106.318938 165.264145 
L 105.734436 164.708175 
L 105.326687 164.357448 
L 104.470747 163.706313 
L 104.023926 163.406948 
L 103.332136 162.992011 
L 102.616699 162.619326 
L 102.127873 162.395011 
L 101.378788 162.095649 
L 100.870001 161.921282 
L 100.09476 161.698239 
L 99.571101 161.575563 
L 98.77746 161.43107 
L 98.244166 161.361312 
L 97.708508 161.312948 
L 96.902466 161.280673 
L 96.364656 161.286054 
L 95.559421 161.33445 
L 95.024838 161.393523 
L 94.228465 161.522108 
L 93.44124 161.698239 
L 92.922908 161.841768 
L 92.157212 162.095649 
L 91.655809 162.290233 
L 91.162592 162.504723 
L 90.439841 162.863019 
L 89.970515 163.1257 
L 89.287166 163.554395 
L 88.630768 164.023316 
L 88.209313 164.357448 
L 87.801564 164.708175 
L 87.217062 165.264145 
L 86.666968 165.854181 
L 86.320338 166.265418 
L 85.83193 166.907448 
L 85.528109 167.351251 
L 85.106272 168.038855 
L 84.8483 168.510786 
L 84.609416 168.99266 
L 84.287708 169.732423 
L 84.09815 170.235748 
L 83.851943 171.003946 
L 83.596176 172.048548 
L 83.499839 172.577687 
L 83.395212 173.377561 
L 83.338761 174.182271 
L 83.328 174.72 
L 83.338761 175.257729 
L 83.395212 176.062439 
L 83.45963 176.596404 
L 83.596176 177.391452 
L 83.780174 178.176875 
L 83.928882 178.693745 
L 84.09815 179.204252 
L 84.390002 179.956294 
L 84.726447 180.689472 
L 84.974925 181.16647 
L 85.38292 181.862377 
L 85.677799 182.31217 
L 86.320338 183.174582 
L 86.666968 183.585819 
L 87.217062 184.175855 
L 87.801564 184.731825 
L 88.209313 185.082552 
L 89.065253 185.733687 
L 89.512074 186.033052 
L 90.203864 186.447989 
L 90.678352 186.701226 
L 91.408127 187.044989 
L 92.157212 187.344351 
L 92.665999 187.518718 
L 93.44124 187.741761 
L 93.964899 187.864437 
L 94.75854 188.00893 
L 95.291834 188.078688 
L 95.827492 188.127052 
L 96.633534 188.159327 
L 97.171344 188.153946 
L 97.976579 188.10555 
L 98.511162 188.046477 
L 99.307535 187.917892 
L 100.09476 187.741761 
L 100.613092 187.598232 
L 101.125266 187.43408 
L 101.880191 187.149767 
L 102.616699 186.820674 
L 103.096159 186.576981 
L 104.023926 186.033052 
L 104.470747 185.733687 
L 105.117631 185.251726 
L 105.734436 184.731825 
L 106.127825 184.365065 
L 106.689615 183.786154 
L 107.044404 183.381935 
L 107.382736 182.963844 
L 107.858201 182.31217 
L 108.15308 181.862377 
L 108.561075 181.16647 
L 108.809553 180.689472 
L 109.145998 179.956294 
L 109.43785 179.204252 
L 109.607118 178.693745 
L 109.755826 178.176875 
L 109.939824 177.391452 
L 110.036161 176.862313 
L 110.140788 176.062439 
L 110.197239 175.257729 
L 110.208 174.72 
" clip-path="url(#pe4f42816e2)" style="fill: none; stroke: #000000; stroke-width: 1.4; stroke-linecap: round"/>
   </g>
   <g id="line2d_51">
    <path d="M 143.808 174.72 
L 143.759625 173.915128 
L 143.673912 173.384274 
L 143.546029 172.861973 
L 143.276999 172.101853 
L 142.918864 171.379427 
L 142.6331 170.923915 
L 142.138516 170.28709 
L 141.767913 169.897468 
L 141.156616 169.371658 
L 140.715963 169.063474 
L 140.25208 168.791509 
L 139.767936 168.557505 
L 139.010546 168.280884 
L 138.489551 168.147782 
L 137.959581 168.056762 
L 137.155233 168.000336 
L 136.617746 168.016474 
L 135.818232 168.121054 
L 135.294678 168.243705 
L 134.531904 168.505117 
L 134.043176 168.729387 
L 133.347583 169.137198 
L 132.913184 169.454137 
L 132.505517 169.804794 
L 132.127192 170.186923 
L 131.619965 170.813724 
L 131.325144 171.263428 
L 130.952626 171.978543 
L 130.753075 172.477874 
L 130.530133 173.252765 
L 130.433815 173.781798 
L 130.369345 174.585541 
L 130.380105 175.123162 
L 130.47668 175.923682 
L 130.594087 176.448438 
L 130.753075 176.962126 
L 130.952626 177.461457 
L 131.325144 178.176572 
L 131.619965 178.626276 
L 132.127192 179.253077 
L 132.505517 179.635206 
L 133.127212 180.148679 
L 133.573944 180.447985 
L 134.285296 180.827639 
L 134.782606 181.032175 
L 135.555228 181.262859 
L 136.08327 181.364465 
L 136.886328 181.436973 
L 137.42403 181.431593 
L 138.225476 181.343032 
L 138.75138 181.230881 
L 139.519231 180.984784 
L 140.25208 180.648491 
L 140.715963 180.376526 
L 141.367343 179.901276 
L 141.767913 179.542532 
L 142.138516 179.15291 
L 142.6331 178.516085 
L 143.04785 177.824607 
L 143.276999 177.338147 
L 143.466519 176.834923 
L 143.673912 176.055726 
L 143.759625 175.524872 
L 143.808 174.72 
" clip-path="url(#pe4f42816e2)" style="fill: none; stroke: #000000; stroke-width: 1.4; stroke-linecap: round"/>
   </g>
   <g id="line2d_52">
    <path d="M 143.808 174.72 
L 143.759625 173.915128 
L 143.673912 173.384274 
L 143.546029 172.861973 
L 143.276999 172.101853 
L 142.918864 171.379427 
L 142.6331 170.923915 
L 142.138516 170.28709 
L 141.767913 169.897468 
L 141.156616 169.371658 
L 140.715963 169.063474 
L 140.25208 168.791509 
L 139.767936 168.557505 
L 139.010546 168.280884 
L 138.489551 168.147782 
L 137.959581 168.056762 
L 137.155233 168.000336 
L 136.617746 168.016474 
L 135.818232 168.121054 
L 135.294678 168.243705 
L 134.531904 168.505117 
L 134.043176 168.729387 
L 133.347583 169.137198 
L 132.913184 169.454137 
L 132.505517 169.804794 
L 132.127192 170.186923 
L 131.619965 170.813724 
L 131.325144 171.263428 
L 130.952626 171.978543 
L 130.753075 172.477874 
L 130.530133 173.252765 
L 130.433815 173.781798 
L 130.369345 174.585541 
L 130.380105 175.123162 
L 130.47668 175.923682 
L 130.594087 176.448438 
L 130.753075 176.962126 
L 130.952626 177.461457 
L 131.325144 178.176572 
L 131.619965 178.626276 
L 132.127192 179.253077 
L 132.505517 179.635206 
L 133.127212 180.148679 
L 133.573944 180.447985 
L 134.285296 180.827639 
L 134.782606 181.032175 
L 135.555228 181.262859 
L 136.08327 181.364465 
L 136.886328 181.436973 
L 137.42403 181.431593 
L 138.225476 181.343032 
L 138.75138 181.230881 
L 139.519231 180.984784 
L 140.25208 180.648491 
L 140.715963 180.376526 
L 141.367343 179.901276 
L 141.767913 179.542532 
L 142.138516 179.15291 
L 142.6331 178.516085 
L 143.04785 177.824607 
L 143.276999 177.338147 
L 143.466519 176.834923 
L 143.673912 176.055726 
L 143.759625 175.524872 
L 143.808 174.72 
" clip-path="url(#pe4f42816e2)" style="fill: none; stroke: #000000; stroke-width: 1.4; stroke-linecap: round"/>
   </g>
   <g id="line2d_53">
    <path d="M 103.488 134.4 
L 103.439625 133.595128 
L 103.353912 133.064274 
L 103.226029 132.541973 
L 102.956999 131.781853 
L 102.598864 131.059427 
L 102.3131 130.603915 
L 101.818516 129.96709 
L 101.447913 129.577468 
L 101.047343 129.218724 
L 100.395963 128.743474 
L 99.93208 128.471509 
L 99.447936 128.237505 
L 98.690546 127.960884 
L 98.169551 127.827782 
L 97.639581 127.736762 
L 96.835233 127.680336 
L 96.297746 127.696474 
L 95.498232 127.801054 
L 94.974678 127.923705 
L 94.211904 128.185117 
L 93.723176 128.409387 
L 93.027583 128.817198 
L 92.593184 129.134137 
L 92.185517 129.484794 
L 91.807192 129.866923 
L 91.299965 130.493724 
L 91.005144 130.943428 
L 90.632626 131.658543 
L 90.348441 132.413127 
L 90.210133 132.932765 
L 90.081606 133.72878 
L 90.049345 134.265541 
L 90.081606 135.07122 
L 90.15668 135.603682 
L 90.274087 136.128438 
L 90.527854 136.893788 
L 90.747223 137.384736 
L 91.005144 137.856572 
L 91.299965 138.306276 
L 91.807192 138.933077 
L 92.385842 139.494614 
L 92.807212 139.828679 
L 93.253944 140.127985 
L 93.965296 140.507639 
L 94.462606 140.712175 
L 95.235228 140.942859 
L 95.76327 141.044465 
L 96.566328 141.116973 
L 97.10403 141.111593 
L 97.905476 141.023032 
L 98.690546 140.839116 
L 99.199231 140.664784 
L 99.692349 140.450337 
L 100.395963 140.056526 
L 101.047343 139.581276 
L 101.447913 139.222532 
L 101.818516 138.83291 
L 102.3131 138.196085 
L 102.72785 137.504607 
L 102.956999 137.018147 
L 103.146519 136.514923 
L 103.353912 135.735726 
L 103.439625 135.204872 
L 103.488 134.4 
" clip-path="url(#pe4f42816e2)" style="fill: none; stroke: #000000; stroke-width: 1.4; stroke-linecap: round"/>
   </g>
   <g id="line2d_54">
    <path d="M 103.488 134.4 
L 103.439625 133.595128 
L 103.353912 133.064274 
L 103.226029 132.541973 
L 102.956999 131.781853 
L 102.598864 131.059427 
L 102.3131 130.603915 
L 101.818516 129.96709 
L 101.447913 129.577468 
L 101.047343 129.218724 
L 100.395963 128.743474 
L 99.93208 128.471509 
L 99.447936 128.237505 
L 98.690546 127.960884 
L 98.169551 127.827782 
L 97.639581 127.736762 
L 96.835233 127.680336 
L 96.297746 127.696474 
L 95.498232 127.801054 
L 94.974678 127.923705 
L 94.211904 128.185117 
L 93.723176 128.409387 
L 93.027583 128.817198 
L 92.593184 129.134137 
L 92.185517 129.484794 
L 91.807192 129.866923 
L 91.299965 130.493724 
L 91.005144 130.943428 
L 90.632626 131.658543 
L 90.348441 132.413127 
L 90.210133 132.932765 
L 90.081606 133.72878 
L 90.049345 134.265541 
L 90.081606 135.07122 
L 90.15668 135.603682 
L 90.274087 136.128438 
L 90.527854 136.893788 
L 90.747223 137.384736 
L 91.005144 137.856572 
L 91.299965 138.306276 
L 91.807192 138.933077 
L 92.385842 139.494614 
L 92.807212 139.828679 
L 93.253944 140.127985 
L 93.965296 140.507639 
L 94.462606 140.712175 
L 95.235228 140.942859 
L 95.76327 141.044465 
L 96.566328 141.116973 
L 97.10403 141.111593 
L 97.905476 141.023032 
L 98.690546 140.839116 
L 99.199231 140.664784 
L 99.692349 140.450337 
L 100.395963 140.056526 
L 101.047343 139.581276 
L 101.447913 139.222532 
L 101.818516 138.83291 
L 102.3131 138.196085 
L 102.72785 137.504607 
L 102.956999 137.018147 
L 103.146519 136.514923 
L 103.353912 135.735726 
L 103.439625 135.204872 
L 103.488 134.4 
" clip-path="url(#pe4f42816e2)" style="fill: none; stroke: #000000; stroke-width: 1.4; stroke-linecap: round"/>
   </g>
   <g id="line2d_55">
    <path d="M 63.168 174.72 
L 63.119625 173.915128 
L 63.033912 173.384274 
L 62.826519 172.605077 
L 62.636999 172.101853 
L 62.40785 171.615393 
L 61.9931 170.923915 
L 61.671831 170.492709 
L 61.127913 169.897468 
L 60.516616 169.371658 
L 60.075963 169.063474 
L 59.372349 168.669663 
L 58.879231 168.455216 
L 58.370546 168.280884 
L 57.849551 168.147782 
L 57.052289 168.027225 
L 56.515233 168.000336 
L 55.709917 168.040656 
L 55.178232 168.121054 
L 54.654678 168.243705 
L 53.891904 168.505117 
L 53.403176 168.729387 
L 52.933944 168.992015 
L 52.487212 169.291321 
L 51.865517 169.804794 
L 51.487192 170.186923 
L 50.979965 170.813724 
L 50.685144 171.263428 
L 50.312626 171.978543 
L 50.028441 172.733127 
L 49.890133 173.252765 
L 49.793815 173.781798 
L 49.729345 174.585541 
L 49.740105 175.123162 
L 49.83668 175.923682 
L 50.028441 176.706873 
L 50.207854 177.213788 
L 50.427223 177.704736 
L 50.828055 178.404374 
L 51.140632 178.841922 
L 51.672531 179.447927 
L 52.273184 179.985863 
L 52.707583 180.302802 
L 53.403176 180.710613 
L 53.891904 180.934883 
L 54.654678 181.196295 
L 55.178232 181.318946 
L 55.977746 181.423526 
L 56.515233 181.439664 
L 57.052289 181.412775 
L 57.585476 181.343032 
L 58.370546 181.159116 
L 58.879231 180.984784 
L 59.61208 180.648491 
L 60.075963 180.376526 
L 60.727343 179.901276 
L 61.127913 179.542532 
L 61.498516 179.15291 
L 61.9931 178.516085 
L 62.278864 178.060573 
L 62.636999 177.338147 
L 62.826519 176.834923 
L 63.033912 176.055726 
L 63.119625 175.524872 
L 63.168 174.72 
" clip-path="url(#pe4f42816e2)" style="fill: none; stroke: #000000; stroke-width: 1.4; stroke-linecap: round"/>
   </g>
   <g id="line2d_56">
    <path d="M 63.168 174.72 
L 63.119625 173.915128 
L 63.033912 173.384274 
L 62.826519 172.605077 
L 62.636999 172.101853 
L 62.40785 171.615393 
L 61.9931 170.923915 
L 61.671831 170.492709 
L 61.127913 169.897468 
L 60.516616 169.371658 
L 60.075963 169.063474 
L 59.372349 168.669663 
L 58.879231 168.455216 
L 58.370546 168.280884 
L 57.849551 168.147782 
L 57.052289 168.027225 
L 56.515233 168.000336 
L 55.709917 168.040656 
L 55.178232 168.121054 
L 54.654678 168.243705 
L 53.891904 168.505117 
L 53.403176 168.729387 
L 52.933944 168.992015 
L 52.487212 169.291321 
L 51.865517 169.804794 
L 51.487192 170.186923 
L 50.979965 170.813724 
L 50.685144 171.263428 
L 50.312626 171.978543 
L 50.028441 172.733127 
L 49.890133 173.252765 
L 49.793815 173.781798 
L 49.729345 174.585541 
L 49.740105 175.123162 
L 49.83668 175.923682 
L 50.028441 176.706873 
L 50.207854 177.213788 
L 50.427223 177.704736 
L 50.828055 178.404374 
L 51.140632 178.841922 
L 51.672531 179.447927 
L 52.273184 179.985863 
L 52.707583 180.302802 
L 53.403176 180.710613 
L 53.891904 180.934883 
L 54.654678 181.196295 
L 55.178232 181.318946 
L 55.977746 181.423526 
L 56.515233 181.439664 
L 57.052289 181.412775 
L 57.585476 181.343032 
L 58.370546 181.159116 
L 58.879231 180.984784 
L 59.61208 180.648491 
L 60.075963 180.376526 
L 60.727343 179.901276 
L 61.127913 179.542532 
L 61.498516 179.15291 
L 61.9931 178.516085 
L 62.278864 178.060573 
L 62.636999 177.338147 
L 62.826519 176.834923 
L 63.033912 176.055726 
L 63.119625 175.524872 
L 63.168 174.72 
" clip-path="url(#pe4f42816e2)" style="fill: none; stroke: #000000; stroke-width: 1.4; stroke-linecap: round"/>
   </g>
   <g id="line2d_57">
    <path d="M 103.488 215.04 
L 103.439625 214.235128 
L 103.353912 213.704274 
L 103.146519 212.925077 
L 102.956999 212.421853 
L 102.72785 211.935393 
L 102.46054 211.468812 
L 101.991831 210.812709 
L 101.637113 210.408571 
L 101.047343 209.858724 
L 100.619373 209.533157 
L 99.93208 209.111509 
L 99.447936 208.877505 
L 98.690546 208.600884 
L 98.169551 208.467782 
L 97.639581 208.376762 
L 96.835233 208.320336 
L 96.297746 208.336474 
L 95.498232 208.441054 
L 94.974678 208.563705 
L 94.211904 208.825117 
L 93.723176 209.049387 
L 93.027583 209.457198 
L 92.593184 209.774137 
L 91.992531 210.312073 
L 91.629798 210.709033 
L 91.299965 211.133724 
L 90.871462 211.816765 
L 90.632626 212.298543 
L 90.433075 212.797874 
L 90.210133 213.572765 
L 90.081606 214.36878 
L 90.049345 214.905541 
L 90.081606 215.71122 
L 90.15668 216.243682 
L 90.348441 217.026873 
L 90.527854 217.533788 
L 90.871462 218.263235 
L 91.148055 218.724374 
L 91.460632 219.161922 
L 91.992531 219.767927 
L 92.385842 220.134614 
L 92.807212 220.468679 
L 93.253944 220.767985 
L 93.965296 221.147639 
L 94.462606 221.352175 
L 95.235228 221.582859 
L 96.029917 221.719344 
L 96.566328 221.756973 
L 97.10403 221.751593 
L 97.905476 221.663032 
L 98.43138 221.550881 
L 99.199231 221.304784 
L 99.93208 220.968491 
L 100.395963 220.696526 
L 101.047343 220.221276 
L 101.447913 219.862532 
L 101.991831 219.267291 
L 102.3131 218.836085 
L 102.598864 218.380573 
L 102.956999 217.658147 
L 103.146519 217.154923 
L 103.353912 216.375726 
L 103.439625 215.844872 
L 103.488 215.04 
" clip-path="url(#pe4f42816e2)" style="fill: none; stroke: #000000; stroke-width: 1.4; stroke-linecap: round"/>
   </g>
   <g id="line2d_58">
    <path d="M 103.488 215.04 
L 103.439625 214.235128 
L 103.353912 213.704274 
L 103.146519 212.925077 
L 102.956999 212.421853 
L 102.72785 211.935393 
L 102.46054 211.468812 
L 101.991831 210.812709 
L 101.637113 210.408571 
L 101.047343 209.858724 
L 100.619373 209.533157 
L 99.93208 209.111509 
L 99.447936 208.877505 
L 98.690546 208.600884 
L 98.169551 208.467782 
L 97.639581 208.376762 
L 96.835233 208.320336 
L 96.297746 208.336474 
L 95.498232 208.441054 
L 94.974678 208.563705 
L 94.211904 208.825117 
L 93.723176 209.049387 
L 93.027583 209.457198 
L 92.593184 209.774137 
L 91.992531 210.312073 
L 91.629798 210.709033 
L 91.299965 211.133724 
L 90.871462 211.816765 
L 90.632626 212.298543 
L 90.433075 212.797874 
L 90.210133 213.572765 
L 90.081606 214.36878 
L 90.049345 214.905541 
L 90.081606 215.71122 
L 90.15668 216.243682 
L 90.348441 217.026873 
L 90.527854 217.533788 
L 90.871462 218.263235 
L 91.148055 218.724374 
L 91.460632 219.161922 
L 91.992531 219.767927 
L 92.385842 220.134614 
L 92.807212 220.468679 
L 93.253944 220.767985 
L 93.965296 221.147639 
L 94.462606 221.352175 
L 95.235228 221.582859 
L 96.029917 221.719344 
L 96.566328 221.756973 
L 97.10403 221.751593 
L 97.905476 221.663032 
L 98.43138 221.550881 
L 99.199231 221.304784 
L 99.93208 220.968491 
L 100.395963 220.696526 
L 101.047343 220.221276 
L 101.447913 219.862532 
L 101.991831 219.267291 
L 102.3131 218.836085 
L 102.598864 218.380573 
L 102.956999 217.658147 
L 103.146519 217.154923 
L 103.353912 216.375726 
L 103.439625 215.844872 
L 103.488 215.04 
" clip-path="url(#pe4f42816e2)" style="fill: none; stroke: #000000; stroke-width: 1.4; stroke-linecap: round"/>
   </g>
   <g id="line2d_59">
    <path d="M 41.9328 91.392 
L 24.864 91.392 
" clip-path="url(#pe4f42816e2)" style="fill: none; stroke: #000000; stroke-width: 0.6"/>
   </g>
   <g id="line2d_60">
    <path d="M 68.8128 24.192 
L 24.864 24.192 
" clip-path="url(#pe4f42816e2)" style="fill: none; stroke: #000000; stroke-width: 0.6"/>
   </g>
   <g id="line2d_61">
    <path d="M 151.6032 91.392 
L 165.984 91.392 
" clip-path="url(#pe4f42816e2)" style="fill: none; stroke: #000000; stroke-width: 0.6"/>
   </g>
   <g id="line2d_62">
    <path d="M 151.6032 71.232 
L 165.984 71.232 
" clip-path="url(#pe4f42816e2)" style="fill: none; stroke: #000000; stroke-width: 0.6"/>
   </g>
   <g id="line2d_63">
    <path d="M 69.888 23.1168 
L 69.888 11.424 
" clip-path="url(#pe4f42816e2)" style="fill: none; stroke: #000000; stroke-width: 0.6"/>
   </g>
   <g id="line2d_64">
    <path d="M 123.648 23.1168 
L 123.648 11.424 
" clip-path="url(#pe4f42816e2)" style="fill: none; stroke: #000000; stroke-width: 0.6"/>
   </g>
   <g id="line2d_65">
    <path d="M 43.008 175.7952 
L 43.008 241.248 
" clip-path="url(#pe4f42816e2)" style="fill: none; stroke: #000000; stroke-width: 0.6"/>
   </g>
   <g id="line2d_66">
    <path d="M 150.528 175.7952 
L 150.528 241.248 
" clip-path="url(#pe4f42816e2)" style="fill: none; stroke: #000000; stroke-width: 0.6"/>
   </g>
   <g id="patch_2">
    <path d="M 26.88 90.377402 
Q 26.88 57.792 26.88 25.206598 
" style="fill: none; stroke: #000000; stroke-width: 0.6; stroke-linecap: round"/>
    <path d="M 28.18 86.177402 
L 26.88 90.377402 
L 25.58 86.177402 
z
" style="stroke: #000000; stroke-width: 0.6; stroke-linecap: round"/>
    <path d="M 25.58 29.406598 
L 26.88 25.206598 
L 28.18 29.406598 
z
" style="stroke: #000000; stroke-width: 0.6; stroke-linecap: round"/>
   </g>
   <g id="patch_3">
    <path d="M 163.968 90.377402 
Q 163.968 81.312 163.968 72.246598 
" style="fill: none; stroke: #000000; stroke-width: 0.6; stroke-linecap: round"/>
    <path d="M 165.268 86.177402 
L 163.968 90.377402 
L 162.668 86.177402 
z
" style="stroke: #000000; stroke-width: 0.6; stroke-linecap: round"/>
    <path d="M 162.668 76.446598 
L 163.968 72.246598 
L 165.268 76.446598 
z
" style="stroke: #000000; stroke-width: 0.6; stroke-linecap: round"/>
   </g>
   <g id="patch_4">
    <path d="M 70.902598 13.44 
Q 96.768 13.44 122.633402 13.44 
" style="fill: none; stroke: #000000; stroke-width: 0.6; stroke-linecap: round"/>
    <path d="M 75.102598 14.74 
L 70.902598 13.44 
L 75.102598 12.14 
z
" style="stroke: #000000; stroke-width: 0.6; stroke-linecap: round"/>
    <path d="M 118.433402 12.14 
L 122.633402 13.44 
L 118.433402 14.74 
z
" style="stroke: #000000; stroke-width: 0.6; stroke-linecap: round"/>
   </g>
   <g id="patch_5">
    <path d="M 44.022598 239.232 
Q 96.768 239.232 149.513402 239.232 
" style="fill: none; stroke: #000000; stroke-width: 0.6; stroke-linecap: round"/>
    <path d="M 48.222598 240.532 
L 44.022598 239.232 
L 48.222598 237.932 
z
" style="stroke: #000000; stroke-width: 0.6; stroke-linecap: round"/>
    <path d="M 145.313402 237.932 
L 149.513402 239.232 
L 145.313402 240.532 
z
" style="stroke: #000000; stroke-width: 0.6; stroke-linecap: round"/>
   </g>
   <g id="text_1">
    <g id="patch_6">
     <path d="M 30.94 62.80575 
L 30.94 52.77825 
L 22.82 52.77825 
L 22.82 62.80575 
z
" style="fill: #ffffff"/>
    </g>
    <!-- 50 -->
    <g transform="translate(28.698359 62.24575) rotate(-90) scale(0.07 -0.07)">
     <defs>
      <path id="DejaVuSans-18" d="M 691 4666 
L 3169 4666 
L 3169 4134 
L 1269 4134 
L 1269 2991 
Q 1406 3038 1543 3061 
Q 1681 3084 1819 3084 
Q 2600 3084 3056 2656 
Q 3513 2228 3513 1497 
Q 3513 744 3044 326 
Q 2575 -91 1722 -91 
Q 1428 -91 1123 -41 
Q 819 9 494 109 
L 494 744 
Q 775 591 1075 516 
Q 1375 441 1709 441 
Q 2250 441 2565 725 
Q 2881 1009 2881 1497 
Q 2881 1984 2565 2268 
Q 2250 2553 1709 2553 
Q 1456 2553 1204 2497 
Q 953 2441 691 2322 
L 691 4666 
z
" transform="scale(0.015625)"/>
      <path id="DejaVuSans-13" d="M 2034 4250 
Q 1547 4250 1301 3770 
Q 1056 3291 1056 2328 
Q 1056 1369 1301 889 
Q 1547 409 2034 409 
Q 2525 409 2770 889 
Q 3016 1369 3016 2328 
Q 3016 3291 2770 3770 
Q 2525 4250 2034 4250 
z
M 2034 4750 
Q 2819 4750 3233 4129 
Q 3647 3509 3647 2328 
Q 3647 1150 3233 529 
Q 2819 -91 2034 -91 
Q 1250 -91 836 529 
Q 422 1150 422 2328 
Q 422 3509 836 4129 
Q 1250 4750 2034 4750 
z
" transform="scale(0.015625)"/>
     </defs>
     <use xlink:href="#DejaVuSans-18"/>
     <use xlink:href="#DejaVuSans-13" transform="translate(63.625 0)"/>
    </g>
   </g>
   <g id="text_2">
    <g id="patch_7">
     <path d="M 168.028 86.32575 
L 168.028 76.29825 
L 159.908 76.29825 
L 159.908 86.32575 
z
" style="fill: #ffffff"/>
    </g>
    <!-- 15 -->
    <g transform="translate(165.786359 85.76575) rotate(-90) scale(0.07 -0.07)">
     <defs>
      <path id="DejaVuSans-14" d="M 794 531 
L 1825 531 
L 1825 4091 
L 703 3866 
L 703 4441 
L 1819 4666 
L 2450 4666 
L 2450 531 
L 3481 531 
L 3481 0 
L 794 0 
L 794 531 
z
" transform="scale(0.015625)"/>
     </defs>
     <use xlink:href="#DejaVuSans-14"/>
     <use xlink:href="#DejaVuSans-18" transform="translate(63.625 0)"/>
    </g>
   </g>
   <g id="text_3">
    <g id="patch_8">
     <path d="M 88.999094 17.505195 
L 104.536906 17.505195 
L 104.536906 9.374805 
L 88.999094 9.374805 
z
" style="fill: #ffffff"/>
    </g>
    <!-- Ø40 -->
    <g transform="translate(89.559094 15.263555) scale(0.07 -0.07)">
     <defs>
      <path id="DejaVuSans-9a" d="M 3769 3475 
L 1528 831 
Q 1722 631 1973 526 
Q 2225 422 2522 422 
Q 3209 422 3611 934 
Q 4013 1447 4013 2328 
Q 4013 2678 3952 2965 
Q 3891 3253 3769 3475 
z
M 3513 3828 
Q 3322 4028 3070 4133 
Q 2819 4238 2522 4238 
Q 1834 4238 1429 3725 
Q 1025 3213 1025 2328 
Q 1025 1978 1086 1684 
Q 1147 1391 1269 1178 
L 3513 3828 
z
M 850 684 
Q 606 1003 482 1415 
Q 359 1828 359 2328 
Q 359 3434 948 4092 
Q 1538 4750 2522 4750 
Q 2928 4750 3273 4629 
Q 3619 4509 3891 4275 
L 4397 4872 
L 4716 4594 
L 4184 3975 
Q 4428 3653 4553 3237 
Q 4678 2822 4678 2328 
Q 4678 1225 4090 567 
Q 3503 -91 2522 -91 
Q 2122 -91 1776 26 
Q 1431 144 1147 378 
L 641 -219 
L 319 56 
L 850 684 
z
" transform="scale(0.015625)"/>
      <path id="DejaVuSans-17" d="M 2419 4116 
L 825 1625 
L 2419 1625 
L 2419 4116 
z
M 2253 4666 
L 3047 4666 
L 3047 1625 
L 3713 1625 
L 3713 1100 
L 3047 1100 
L 3047 0 
L 2419 0 
L 2419 1100 
L 313 1100 
L 313 1709 
L 2253 4666 
z
" transform="scale(0.015625)"/>
     </defs>
     <use xlink:href="#DejaVuSans-9a"/>
     <use xlink:href="#DejaVuSans-17" transform="translate(78.71875 0)"/>
     <use xlink:href="#DejaVuSans-13" transform="translate(142.34375 0)"/>
    </g>
   </g>
   <g id="text_4">
    <g id="patch_9">
     <path d="M 88.999094 243.297195 
L 104.536906 243.297195 
L 104.536906 235.166805 
L 88.999094 235.166805 
z
" style="fill: #ffffff"/>
    </g>
    <!-- Ø80 -->
    <g transform="translate(89.559094 241.055555) scale(0.07 -0.07)">
     <defs>
      <path id="DejaVuSans-1b" d="M 2034 2216 
Q 1584 2216 1326 1975 
Q 1069 1734 1069 1313 
Q 1069 891 1326 650 
Q 1584 409 2034 409 
Q 2484 409 2743 651 
Q 3003 894 3003 1313 
Q 3003 1734 2745 1975 
Q 2488 2216 2034 2216 
z
M 1403 2484 
Q 997 2584 770 2862 
Q 544 3141 544 3541 
Q 544 4100 942 4425 
Q 1341 4750 2034 4750 
Q 2731 4750 3128 4425 
Q 3525 4100 3525 3541 
Q 3525 3141 3298 2862 
Q 3072 2584 2669 2484 
Q 3125 2378 3379 2068 
Q 3634 1759 3634 1313 
Q 3634 634 3220 271 
Q 2806 -91 2034 -91 
Q 1263 -91 848 271 
Q 434 634 434 1313 
Q 434 1759 690 2068 
Q 947 2378 1403 2484 
z
M 1172 3481 
Q 1172 3119 1398 2916 
Q 1625 2713 2034 2713 
Q 2441 2713 2670 2916 
Q 2900 3119 2900 3481 
Q 2900 3844 2670 4047 
Q 2441 4250 2034 4250 
Q 1625 4250 1398 4047 
Q 1172 3844 1172 3481 
z
" transform="scale(0.015625)"/>
     </defs>
     <use xlink:href="#DejaVuSans-9a"/>
     <use xlink:href="#DejaVuSans-1b" transform="translate(78.71875 0)"/>
     <use xlink:href="#DejaVuSans-13" transform="translate(142.34375 0)"/>
    </g>
   </g>
   <g id="patch_10">
    <path d="M 138.875561 126.209902 
Q 130.233516 134.578654 122.320332 142.241595 
" style="fill: none; stroke: #000000; stroke-width: 0.6; stroke-linecap: round"/>
    <path d="M 125.0654 140.850085 
L 122.320332 142.241595 
L 123.799305 139.542643 
z
" style="stroke: #000000; stroke-width: 0.6; stroke-linecap: round"/>
   </g>
   <g id="text_5">
    <g id="patch_11">
     <path d="M 136.388 125.165195 
L 152.205813 125.165195 
L 152.205813 116.754805 
L 136.388 116.754805 
z
" style="fill: #ffffff"/>
    </g>
    <!-- Ø60 -->
    <g transform="translate(137.088 122.783555) scale(0.07 -0.07)">
     <defs>
      <path id="DejaVuSans-19" d="M 2113 2584 
Q 1688 2584 1439 2293 
Q 1191 2003 1191 1497 
Q 1191 994 1439 701 
Q 1688 409 2113 409 
Q 2538 409 2786 701 
Q 3034 994 3034 1497 
Q 3034 2003 2786 2293 
Q 2538 2584 2113 2584 
z
M 3366 4563 
L 3366 3988 
Q 3128 4100 2886 4159 
Q 2644 4219 2406 4219 
Q 1781 4219 1451 3797 
Q 1122 3375 1075 2522 
Q 1259 2794 1537 2939 
Q 1816 3084 2150 3084 
Q 2853 3084 3261 2657 
Q 3669 2231 3669 1497 
Q 3669 778 3244 343 
Q 2819 -91 2113 -91 
Q 1303 -91 875 529 
Q 447 1150 447 2328 
Q 447 3434 972 4092 
Q 1497 4750 2381 4750 
Q 2619 4750 2861 4703 
Q 3103 4656 3366 4563 
z
" transform="scale(0.015625)"/>
     </defs>
     <use xlink:href="#DejaVuSans-9a"/>
     <use xlink:href="#DejaVuSans-19" transform="translate(78.71875 0)"/>
     <use xlink:href="#DejaVuSans-13" transform="translate(142.34375 0)"/>
    </g>
   </g>
   <g id="patch_12">
    <path d="M 170.398263 217.711398 
Q 155.902898 198.789608 142.024542 180.673243 
" style="fill: none; stroke: #000000; stroke-width: 0.6; stroke-linecap: round"/>
    <path d="M 143.090059 183.560521 
L 142.024542 180.673243 
L 144.53484 182.453721 
z
" style="stroke: #000000; stroke-width: 0.6; stroke-linecap: round"/>
   </g>
   <g id="text_6">
    <g id="patch_13">
     <path d="M 159.236 227.309195 
L 189.822719 227.309195 
L 189.822719 218.898805 
L 159.236 218.898805 
z
" style="fill: #ffffff"/>
    </g>
    <!-- 4 × Ø10 -->
    <g transform="translate(159.936 224.927555) scale(0.07 -0.07)">
     <defs>
      <path id="DejaVuSans-3" transform="scale(0.015625)"/>
      <path id="DejaVuSans-99" d="M 4488 3438 
L 3059 2003 
L 4488 575 
L 4116 197 
L 2681 1631 
L 1247 197 
L 878 575 
L 2303 2003 
L 878 3438 
L 1247 3816 
L 2681 2381 
L 4116 3816 
L 4488 3438 
z
" transform="scale(0.015625)"/>
     </defs>
     <use xlink:href="#DejaVuSans-17"/>
     <use xlink:href="#DejaVuSans-3" transform="translate(63.625 0)"/>
     <use xlink:href="#DejaVuSans-99" transform="translate(95.40625 0)"/>
     <use xlink:href="#DejaVuSans-3" transform="translate(179.203125 0)"/>
     <use xlink:href="#DejaVuSans-9a" transform="translate(210.984375 0)"/>
     <use xlink:href="#DejaVuSans-14" transform="translate(289.703125 0)"/>
     <use xlink:href="#DejaVuSans-13" transform="translate(353.328125 0)"/>
    </g>
   </g>
   <g id="patch_14">
    <path d="M 26.50517 218.147293 
Q 56.488766 200.753179 85.59475 183.868187 
" style="fill: none; stroke: #000000; stroke-width: 0.6; stroke-linecap: round"/>
    <path d="M 82.595057 184.556331 
L 85.59475 183.868187 
L 83.508327 186.130605 
z
" style="stroke: #000000; stroke-width: 0.6; stroke-linecap: round"/>
   </g>
   <g id="text_7">
    <g id="patch_15">
     <path d="M 10.052 227.309195 
L 25.869812 227.309195 
L 25.869812 218.898805 
L 10.052 218.898805 
z
" style="fill: #ffffff"/>
    </g>
    <!-- Ø20 -->
    <g transform="translate(10.752 224.927555) scale(0.07 -0.07)">
     <defs>
      <path id="DejaVuSans-15" d="M 1228 531 
L 3431 531 
L 3431 0 
L 469 0 
L 469 531 
Q 828 903 1448 1529 
Q 2069 2156 2228 2338 
Q 2531 2678 2651 2914 
Q 2772 3150 2772 3378 
Q 2772 3750 2511 3984 
Q 2250 4219 1831 4219 
Q 1534 4219 1204 4116 
Q 875 4013 500 3803 
L 500 4441 
Q 881 4594 1212 4672 
Q 1544 4750 1819 4750 
Q 2544 4750 2975 4387 
Q 3406 4025 3406 3419 
Q 3406 3131 3298 2873 
Q 3191 2616 2906 2266 
Q 2828 2175 2409 1742 
Q 1991 1309 1228 531 
z
" transform="scale(0.015625)"/>
     </defs>
     <use xlink:href="#DejaVuSans-9a"/>
     <use xlink:href="#DejaVuSans-15" transform="translate(78.71875 0)"/>
     <use xlink:href="#DejaVuSans-13" transform="translate(142.34375 0)"/>
    </g>
   </g>
   <g id="text_8">
    <!-- Alzado -->
    <g style="fill: #444444" transform="translate(5.252688 15.12873) scale(0.065 -0.065)">
     <defs>
      <path id="DejaVuSans-Oblique-24" d="M 2356 4666 
L 3072 4666 
L 3938 0 
L 3278 0 
L 3084 1197 
L 984 1197 
L 325 0 
L -341 0 
L 2356 4666 
z
M 2584 4044 
L 1275 1722 
L 2988 1722 
L 2584 4044 
z
" transform="scale(0.015625)"/>
      <path id="DejaVuSans-Oblique-4f" d="M 1172 4863 
L 1747 4863 
L 800 0 
L 225 0 
L 1172 4863 
z
" transform="scale(0.015625)"/>
      <path id="DejaVuSans-Oblique-5d" d="M 744 3500 
L 3475 3500 
L 3372 2975 
L 738 459 
L 2913 459 
L 2822 0 
L -19 0 
L 84 525 
L 2719 3041 
L 653 3041 
L 744 3500 
z
" transform="scale(0.015625)"/>
      <path id="DejaVuSans-Oblique-44" d="M 3438 1997 
L 3047 0 
L 2472 0 
L 2578 531 
Q 2325 219 2001 64 
Q 1678 -91 1281 -91 
Q 834 -91 548 182 
Q 263 456 263 884 
Q 263 1497 752 1853 
Q 1241 2209 2100 2209 
L 2900 2209 
L 2931 2363 
Q 2938 2388 2941 2417 
Q 2944 2447 2944 2509 
Q 2944 2788 2717 2942 
Q 2491 3097 2081 3097 
Q 1800 3097 1504 3025 
Q 1209 2953 897 2809 
L 997 3341 
Q 1322 3463 1633 3523 
Q 1944 3584 2234 3584 
Q 2853 3584 3176 3315 
Q 3500 3047 3500 2534 
Q 3500 2431 3484 2292 
Q 3469 2153 3438 1997 
z
M 2816 1759 
L 2241 1759 
Q 1534 1759 1195 1570 
Q 856 1381 856 984 
Q 856 709 1029 553 
Q 1203 397 1509 397 
Q 1978 397 2328 733 
Q 2678 1069 2791 1631 
L 2816 1759 
z
" transform="scale(0.015625)"/>
      <path id="DejaVuSans-Oblique-47" d="M 2675 525 
Q 2444 222 2128 65 
Q 1813 -91 1428 -91 
Q 903 -91 598 267 
Q 294 625 294 1247 
Q 294 1766 478 2236 
Q 663 2706 1013 3078 
Q 1244 3325 1534 3454 
Q 1825 3584 2144 3584 
Q 2481 3584 2739 3421 
Q 2997 3259 3138 2956 
L 3513 4863 
L 4091 4863 
L 3144 0 
L 2566 0 
L 2675 525 
z
M 891 1350 
Q 891 897 1095 644 
Q 1300 391 1663 391 
Q 1931 391 2161 520 
Q 2391 650 2566 903 
Q 2750 1166 2856 1509 
Q 2963 1853 2963 2188 
Q 2963 2622 2758 2865 
Q 2553 3109 2194 3109 
Q 1922 3109 1687 2981 
Q 1453 2853 1288 2613 
Q 1106 2353 998 2009 
Q 891 1666 891 1350 
z
" transform="scale(0.015625)"/>
      <path id="DejaVuSans-Oblique-52" d="M 1625 -91 
Q 1009 -91 651 289 
Q 294 669 294 1325 
Q 294 1706 417 2101 
Q 541 2497 738 2766 
Q 1047 3184 1428 3384 
Q 1809 3584 2291 3584 
Q 2888 3584 3255 3212 
Q 3622 2841 3622 2241 
Q 3622 1825 3500 1412 
Q 3378 1000 3181 728 
Q 2875 309 2494 109 
Q 2113 -91 1625 -91 
z
M 891 1344 
Q 891 869 1089 633 
Q 1288 397 1691 397 
Q 2269 397 2648 901 
Q 3028 1406 3028 2181 
Q 3028 2634 2825 2865 
Q 2622 3097 2228 3097 
Q 1903 3097 1650 2945 
Q 1397 2794 1197 2484 
Q 1050 2253 970 1956 
Q 891 1659 891 1344 
z
" transform="scale(0.015625)"/>
     </defs>
     <use xlink:href="#DejaVuSans-Oblique-24"/>
     <use xlink:href="#DejaVuSans-Oblique-4f" transform="translate(68.40625 0)"/>
     <use xlink:href="#DejaVuSans-Oblique-5d" transform="translate(96.1875 0)"/>
     <use xlink:href="#DejaVuSans-Oblique-44" transform="translate(148.671875 0)"/>
     <use xlink:href="#DejaVuSans-Oblique-47" transform="translate(209.953125 0)"/>
     <use xlink:href="#DejaVuSans-Oblique-52" transform="translate(273.4375 0)"/>
    </g>
   </g>
   <g id="text_9">
    <!-- Planta -->
    <g style="fill: #444444" transform="translate(5.948391 125.33673) scale(0.065 -0.065)">
     <defs>
      <path id="DejaVuSans-Oblique-33" d="M 1081 4666 
L 2541 4666 
Q 3178 4666 3512 4369 
Q 3847 4072 3847 3500 
Q 3847 2731 3353 2303 
Q 2859 1875 1966 1875 
L 1172 1875 
L 806 0 
L 172 0 
L 1081 4666 
z
M 1613 4147 
L 1275 2394 
L 2069 2394 
Q 2606 2394 2893 2669 
Q 3181 2944 3181 3456 
Q 3181 3784 2986 3965 
Q 2791 4147 2438 4147 
L 1613 4147 
z
" transform="scale(0.015625)"/>
      <path id="DejaVuSans-Oblique-51" d="M 3566 2113 
L 3156 0 
L 2578 0 
L 2988 2091 
Q 3016 2238 3031 2350 
Q 3047 2463 3047 2528 
Q 3047 2791 2881 2937 
Q 2716 3084 2419 3084 
Q 1956 3084 1622 2776 
Q 1288 2469 1184 1941 
L 800 0 
L 225 0 
L 903 3500 
L 1478 3500 
L 1363 2950 
Q 1603 3253 1940 3418 
Q 2278 3584 2650 3584 
Q 3113 3584 3367 3334 
Q 3622 3084 3622 2631 
Q 3622 2519 3608 2391 
Q 3594 2263 3566 2113 
z
" transform="scale(0.015625)"/>
      <path id="DejaVuSans-Oblique-57" d="M 2706 3500 
L 2619 3053 
L 1472 3053 
L 1100 1153 
Q 1081 1047 1072 975 
Q 1063 903 1063 863 
Q 1063 663 1183 572 
Q 1303 481 1569 481 
L 2150 481 
L 2053 0 
L 1503 0 
Q 991 0 739 200 
Q 488 400 488 806 
Q 488 878 497 964 
Q 506 1050 525 1153 
L 897 3053 
L 409 3053 
L 500 3500 
L 978 3500 
L 1172 4494 
L 1747 4494 
L 1556 3500 
L 2706 3500 
z
" transform="scale(0.015625)"/>
     </defs>
     <use xlink:href="#DejaVuSans-Oblique-33"/>
     <use xlink:href="#DejaVuSans-Oblique-4f" transform="translate(60.296875 0)"/>
     <use xlink:href="#DejaVuSans-Oblique-44" transform="translate(88.078125 0)"/>
     <use xlink:href="#DejaVuSans-Oblique-51" transform="translate(149.359375 0)"/>
     <use xlink:href="#DejaVuSans-Oblique-57" transform="translate(212.734375 0)"/>
     <use xlink:href="#DejaVuSans-Oblique-44" transform="translate(251.9375 0)"/>
    </g>
   </g>
  </g>
 </g>
 <defs>
  <clipPath id="pe4f42816e2">
   <rect x="0" y="0" width="201.6" height="252.672"/>
  </clipPath>
 </defs>
</svg>
